# xmcd
#
# Track frame offsets: 
#        150
#        16082
#        31231
#        43501
#        51716
#        68408
#        83842
#        97822
#        111367
#        123075
#        134741
#        148118
#        157376
#        168011
#        181493
#        190558
#        211602
#        220131
#        237136
#        258967
#        275708
#        286161
#        304387
#
# Disc length: 4187 seconds
#
# Revision: 0
# Processed by: cddbd v1.5.2PL0 Copyright (c) Steve Scherf et al.
# Submitted via: ExactAudioCopy v1.0b3
#
DISCID=47105917
DTITLE=Various Artist - USA a trip to musical America
DYEAR=1900
DGENRE=Country
TTITLE0=Red Rock Canyon
TTITLE1=Horseback Riding
TTITLE2=You're frightening me, Miss B.
TTITLE3=Western Railways
TTITLE4=Campfire
TTITLE5=It was Raining
TTITLE6=I go to Church on Sundays
TTITLE7=Cowboys Delight
TTITLE8=Texas Special
TTITLE9=Cold Rain
TTITLE10=Straight Four
TTITLE11=O. K. Mr. Hillbilly (Vocal Version)
TTITLE12=Getaway
TTITLE13=Bluegrass Boogie
TTITLE14=Cabbage Cooking
TTITLE15=Johnny's Medley
TTITLE16=Lets's dance Susanna
TTITLE17=Street Jam
TTITLE18=So Good
TTITLE19=Sunset Boulevard
TTITLE20=See you in Texas
TTITLE21=First Step
TTITLE22=American Band March
EXTD=
EXTT0=
EXTT1=
EXTT2=
EXTT3=
EXTT4=
EXTT5=
EXTT6=
EXTT7=
EXTT8=
EXTT9=
EXTT10=
EXTT11=
EXTT12=
EXTT13=
EXTT14=
EXTT15=
EXTT16=
EXTT17=
EXTT18=
EXTT19=
EXTT20=
EXTT21=
EXTT22=
PLAYORDER=
